<mxfile host="app.diagrams.net" modified="2024-04-26T14:33:15.732Z" agent="Mozilla/5.0 (Macintosh; Intel Mac OS X 10_15_7) AppleWebKit/537.36 (KHTML, like Gecko) Chrome/124.0.0.0 Safari/537.36" etag="DQrPP_jg2fpj6IG2WdH3" version="24.3.0" type="github">
  <diagram name="페이지-1" id="PEeTTN6Qh3j9zTK6725p">
    <mxGraphModel dx="1304" dy="692" grid="1" gridSize="10" guides="1" tooltips="1" connect="1" arrows="1" fold="1" page="1" pageScale="1" pageWidth="827" pageHeight="1169" math="0" shadow="0">
      <root>
        <mxCell id="0" />
        <mxCell id="1" parent="0" />
        <mxCell id="kyAbfdwRLWiOfErI3HJL-1" value="Actor" style="shape=umlActor;verticalLabelPosition=bottom;verticalAlign=top;html=1;outlineConnect=0;" parent="1" vertex="1">
          <mxGeometry x="10" y="340" width="30" height="60" as="geometry" />
        </mxCell>
        <mxCell id="Zj4kQ8oFQ7n77ifHzUcV-2" value="게시판" style="shape=umlFrame;whiteSpace=wrap;html=1;pointerEvents=0;" vertex="1" parent="1">
          <mxGeometry x="130" y="70" width="550" height="540" as="geometry" />
        </mxCell>
        <mxCell id="Zj4kQ8oFQ7n77ifHzUcV-29" style="rounded=0;orthogonalLoop=1;jettySize=auto;html=1;entryX=0;entryY=0.5;entryDx=0;entryDy=0;exitX=1;exitY=0.5;exitDx=0;exitDy=0;endArrow=classic;endFill=1;dashed=1;" edge="1" parent="1" source="Zj4kQ8oFQ7n77ifHzUcV-5" target="Zj4kQ8oFQ7n77ifHzUcV-8">
          <mxGeometry relative="1" as="geometry">
            <mxPoint x="290" y="170" as="sourcePoint" />
          </mxGeometry>
        </mxCell>
        <mxCell id="Zj4kQ8oFQ7n77ifHzUcV-5" value="로그인" style="rounded=1;whiteSpace=wrap;html=1;arcSize=40;fontColor=#000000;fillColor=#ffffc0;strokeColor=#ff0000;" vertex="1" parent="1">
          <mxGeometry x="330" y="130" width="120" height="40" as="geometry" />
        </mxCell>
        <mxCell id="Zj4kQ8oFQ7n77ifHzUcV-37" style="rounded=0;orthogonalLoop=1;jettySize=auto;html=1;exitX=0;exitY=0.5;exitDx=0;exitDy=0;entryX=1;entryY=0.5;entryDx=0;entryDy=0;dashed=1;" edge="1" parent="1" source="Zj4kQ8oFQ7n77ifHzUcV-7" target="Zj4kQ8oFQ7n77ifHzUcV-13">
          <mxGeometry relative="1" as="geometry" />
        </mxCell>
        <mxCell id="Zj4kQ8oFQ7n77ifHzUcV-7" value="게시물 쓰기 수정&amp;nbsp;&lt;br&gt;삭제, 보기" style="rounded=1;whiteSpace=wrap;html=1;arcSize=40;fontColor=#000000;fillColor=#ffffc0;strokeColor=#ff0000;" vertex="1" parent="1">
          <mxGeometry x="390" y="490" width="120" height="40" as="geometry" />
        </mxCell>
        <mxCell id="Zj4kQ8oFQ7n77ifHzUcV-8" value="인증" style="rounded=1;whiteSpace=wrap;html=1;arcSize=40;fontColor=#000000;fillColor=#ffffc0;strokeColor=#ff0000;" vertex="1" parent="1">
          <mxGeometry x="530" y="120" width="120" height="40" as="geometry" />
        </mxCell>
        <mxCell id="Zj4kQ8oFQ7n77ifHzUcV-30" style="rounded=0;orthogonalLoop=1;jettySize=auto;html=1;endArrow=classic;endFill=1;entryX=1;entryY=0.5;entryDx=0;entryDy=0;dashed=1;" edge="1" parent="1" source="Zj4kQ8oFQ7n77ifHzUcV-9" target="Zj4kQ8oFQ7n77ifHzUcV-5">
          <mxGeometry relative="1" as="geometry">
            <mxPoint x="290" y="170" as="targetPoint" />
          </mxGeometry>
        </mxCell>
        <mxCell id="Zj4kQ8oFQ7n77ifHzUcV-9" value="로그인 실패" style="rounded=1;whiteSpace=wrap;html=1;arcSize=40;fontColor=#000000;fillColor=#ffffc0;strokeColor=#ff0000;" vertex="1" parent="1">
          <mxGeometry x="530" y="200" width="120" height="40" as="geometry" />
        </mxCell>
        <mxCell id="Zj4kQ8oFQ7n77ifHzUcV-38" style="rounded=0;orthogonalLoop=1;jettySize=auto;html=1;exitX=0;exitY=0.5;exitDx=0;exitDy=0;entryX=1;entryY=0.5;entryDx=0;entryDy=0;dashed=1;" edge="1" parent="1" source="Zj4kQ8oFQ7n77ifHzUcV-10" target="Zj4kQ8oFQ7n77ifHzUcV-13">
          <mxGeometry relative="1" as="geometry" />
        </mxCell>
        <mxCell id="Zj4kQ8oFQ7n77ifHzUcV-10" value="댓글 보기, 수정,&amp;nbsp;&lt;div&gt;삭제, 쓰기&lt;/div&gt;" style="rounded=1;whiteSpace=wrap;html=1;arcSize=40;fontColor=#000000;fillColor=#ffffc0;strokeColor=#ff0000;" vertex="1" parent="1">
          <mxGeometry x="320" y="565" width="120" height="40" as="geometry" />
        </mxCell>
        <mxCell id="Zj4kQ8oFQ7n77ifHzUcV-35" style="rounded=0;orthogonalLoop=1;jettySize=auto;html=1;exitX=0;exitY=0.5;exitDx=0;exitDy=0;entryX=1;entryY=0.5;entryDx=0;entryDy=0;dashed=1;" edge="1" parent="1" source="Zj4kQ8oFQ7n77ifHzUcV-11" target="Zj4kQ8oFQ7n77ifHzUcV-15">
          <mxGeometry relative="1" as="geometry" />
        </mxCell>
        <mxCell id="Zj4kQ8oFQ7n77ifHzUcV-11" value="게시판 정렬" style="rounded=1;whiteSpace=wrap;html=1;arcSize=40;fontColor=#000000;fillColor=#ffffc0;strokeColor=#ff0000;" vertex="1" parent="1">
          <mxGeometry x="340" y="300" width="120" height="40" as="geometry" />
        </mxCell>
        <mxCell id="Zj4kQ8oFQ7n77ifHzUcV-36" style="rounded=0;orthogonalLoop=1;jettySize=auto;html=1;exitX=0;exitY=0.5;exitDx=0;exitDy=0;entryX=1;entryY=0.5;entryDx=0;entryDy=0;dashed=1;" edge="1" parent="1" source="Zj4kQ8oFQ7n77ifHzUcV-12" target="Zj4kQ8oFQ7n77ifHzUcV-15">
          <mxGeometry relative="1" as="geometry" />
        </mxCell>
        <mxCell id="Zj4kQ8oFQ7n77ifHzUcV-12" value="검색" style="rounded=1;whiteSpace=wrap;html=1;arcSize=40;fontColor=#000000;fillColor=#ffffc0;strokeColor=#ff0000;" vertex="1" parent="1">
          <mxGeometry x="340" y="380" width="120" height="40" as="geometry" />
        </mxCell>
        <mxCell id="Zj4kQ8oFQ7n77ifHzUcV-33" style="rounded=0;orthogonalLoop=1;jettySize=auto;html=1;entryX=0.5;entryY=1;entryDx=0;entryDy=0;dashed=1;exitX=1;exitY=0.5;exitDx=0;exitDy=0;" edge="1" parent="1" source="Zj4kQ8oFQ7n77ifHzUcV-13" target="Zj4kQ8oFQ7n77ifHzUcV-5">
          <mxGeometry relative="1" as="geometry" />
        </mxCell>
        <mxCell id="Zj4kQ8oFQ7n77ifHzUcV-13" value="Activity" style="rounded=1;whiteSpace=wrap;html=1;arcSize=40;fontColor=#000000;fillColor=#ffffc0;strokeColor=#ff0000;" vertex="1" parent="1">
          <mxGeometry x="150" y="430" width="100" height="40" as="geometry" />
        </mxCell>
        <mxCell id="Zj4kQ8oFQ7n77ifHzUcV-14" value="Activity" style="rounded=1;whiteSpace=wrap;html=1;arcSize=40;fontColor=#000000;fillColor=#ffffc0;strokeColor=#ff0000;" vertex="1" parent="1">
          <mxGeometry x="150" y="280" width="120" height="40" as="geometry" />
        </mxCell>
        <mxCell id="Zj4kQ8oFQ7n77ifHzUcV-32" style="rounded=0;orthogonalLoop=1;jettySize=auto;html=1;exitX=1;exitY=0.5;exitDx=0;exitDy=0;entryX=0.5;entryY=1;entryDx=0;entryDy=0;dashed=1;" edge="1" parent="1" source="Zj4kQ8oFQ7n77ifHzUcV-15" target="Zj4kQ8oFQ7n77ifHzUcV-5">
          <mxGeometry relative="1" as="geometry" />
        </mxCell>
        <mxCell id="Zj4kQ8oFQ7n77ifHzUcV-15" value="Activity" style="rounded=1;whiteSpace=wrap;html=1;arcSize=40;fontColor=#000000;fillColor=#ffffc0;strokeColor=#ff0000;" vertex="1" parent="1">
          <mxGeometry x="150" y="340" width="120" height="40" as="geometry" />
        </mxCell>
        <mxCell id="Zj4kQ8oFQ7n77ifHzUcV-23" style="rounded=0;orthogonalLoop=1;jettySize=auto;html=1;exitX=0;exitY=0.5;exitDx=0;exitDy=0;entryX=1;entryY=0.3333333333333333;entryDx=0;entryDy=0;entryPerimeter=0;strokeColor=default;endArrow=none;endFill=0;" edge="1" parent="1" source="Zj4kQ8oFQ7n77ifHzUcV-14" target="kyAbfdwRLWiOfErI3HJL-1">
          <mxGeometry relative="1" as="geometry" />
        </mxCell>
        <mxCell id="Zj4kQ8oFQ7n77ifHzUcV-24" style="rounded=0;orthogonalLoop=1;jettySize=auto;html=1;strokeColor=default;endArrow=none;endFill=0;exitX=1;exitY=0.3333333333333333;exitDx=0;exitDy=0;exitPerimeter=0;" edge="1" parent="1" source="kyAbfdwRLWiOfErI3HJL-1">
          <mxGeometry relative="1" as="geometry">
            <mxPoint x="702.6799999999998" y="369.6499999999999" as="sourcePoint" />
            <mxPoint x="150" y="360" as="targetPoint" />
          </mxGeometry>
        </mxCell>
        <mxCell id="Zj4kQ8oFQ7n77ifHzUcV-25" style="rounded=0;orthogonalLoop=1;jettySize=auto;html=1;strokeColor=default;endArrow=none;endFill=0;exitX=0;exitY=0.5;exitDx=0;exitDy=0;entryX=1;entryY=0.3333333333333333;entryDx=0;entryDy=0;entryPerimeter=0;" edge="1" parent="1" source="Zj4kQ8oFQ7n77ifHzUcV-13" target="kyAbfdwRLWiOfErI3HJL-1">
          <mxGeometry relative="1" as="geometry">
            <mxPoint x="170" y="290" as="sourcePoint" />
            <mxPoint x="60" y="330" as="targetPoint" />
          </mxGeometry>
        </mxCell>
        <mxCell id="Zj4kQ8oFQ7n77ifHzUcV-28" style="rounded=0;orthogonalLoop=1;jettySize=auto;html=1;exitX=1;exitY=0.3333333333333333;exitDx=0;exitDy=0;entryX=0;entryY=0.5;entryDx=0;entryDy=0;strokeColor=default;endArrow=none;endFill=0;exitPerimeter=0;" edge="1" parent="1" source="kyAbfdwRLWiOfErI3HJL-1" target="Zj4kQ8oFQ7n77ifHzUcV-5">
          <mxGeometry relative="1" as="geometry">
            <mxPoint x="160" y="280" as="sourcePoint" />
            <mxPoint x="50" y="370" as="targetPoint" />
          </mxGeometry>
        </mxCell>
        <mxCell id="Zj4kQ8oFQ7n77ifHzUcV-42" style="rounded=0;orthogonalLoop=1;jettySize=auto;html=1;entryX=1;entryY=0.5;entryDx=0;entryDy=0;exitX=0;exitY=0.5;exitDx=0;exitDy=0;" edge="1" parent="1" source="Zj4kQ8oFQ7n77ifHzUcV-41" target="Zj4kQ8oFQ7n77ifHzUcV-8">
          <mxGeometry relative="1" as="geometry" />
        </mxCell>
        <mxCell id="Zj4kQ8oFQ7n77ifHzUcV-43" style="rounded=0;orthogonalLoop=1;jettySize=auto;html=1;entryX=1;entryY=0.5;entryDx=0;entryDy=0;" edge="1" parent="1" source="Zj4kQ8oFQ7n77ifHzUcV-41" target="Zj4kQ8oFQ7n77ifHzUcV-15">
          <mxGeometry relative="1" as="geometry">
            <mxPoint x="290" y="360" as="targetPoint" />
          </mxGeometry>
        </mxCell>
        <mxCell id="Zj4kQ8oFQ7n77ifHzUcV-44" style="rounded=0;orthogonalLoop=1;jettySize=auto;html=1;entryX=1;entryY=0.5;entryDx=0;entryDy=0;exitX=0;exitY=0.5;exitDx=0;exitDy=0;" edge="1" parent="1" source="Zj4kQ8oFQ7n77ifHzUcV-41" target="Zj4kQ8oFQ7n77ifHzUcV-13">
          <mxGeometry relative="1" as="geometry" />
        </mxCell>
        <mxCell id="Zj4kQ8oFQ7n77ifHzUcV-45" style="rounded=0;orthogonalLoop=1;jettySize=auto;html=1;entryX=1;entryY=0.5;entryDx=0;entryDy=0;exitX=0;exitY=0.5;exitDx=0;exitDy=0;" edge="1" parent="1" source="Zj4kQ8oFQ7n77ifHzUcV-41" target="Zj4kQ8oFQ7n77ifHzUcV-7">
          <mxGeometry relative="1" as="geometry" />
        </mxCell>
        <mxCell id="Zj4kQ8oFQ7n77ifHzUcV-46" style="rounded=0;orthogonalLoop=1;jettySize=auto;html=1;entryX=1;entryY=0.5;entryDx=0;entryDy=0;exitX=0;exitY=0.5;exitDx=0;exitDy=0;" edge="1" parent="1" source="Zj4kQ8oFQ7n77ifHzUcV-41" target="Zj4kQ8oFQ7n77ifHzUcV-10">
          <mxGeometry relative="1" as="geometry" />
        </mxCell>
        <mxCell id="Zj4kQ8oFQ7n77ifHzUcV-41" value="DB" style="rounded=0;whiteSpace=wrap;html=1;" vertex="1" parent="1">
          <mxGeometry x="730" y="310" width="50" height="60" as="geometry" />
        </mxCell>
      </root>
    </mxGraphModel>
  </diagram>
</mxfile>
